# xmcd CD database file
#
# Track frame offsets:
#	150
#	14395
#	28333
#	39766
#	54500
#	71065
#	86398
#	95875
#	111453
#	125202
#	139792
#	152469
#	173394
#	183301
#	197265
#
# Disc length: 2824 seconds
#
# Revision: 0
# Processed by: cddbd v1.5.1PL2 Copyright (c) Steve Scherf et al.
# Submitted via: CDex 1.50
#
DISCID=c50b060f
DTITLE=Sammy Price - Blues And Jazz Classics
DYEAR=1975
DGENRE=Blues
TTITLE0=My Blues Heaven
TTITLE1=Saint James Infirmary
TTITLE2=Gee Baby, Ain't I Good To You
TTITLE3=Sunday
TTITLE4=J.C. Speaks
TTITLE5=Can't Help Lovin' That Man
TTITLE6=Stormy Weather
TTITLE7=Berne' Boogie
TTITLE8=Sammy and J.C.Boogie
TTITLE9=Barefoot Boogie
TTITLE10=Untitled Boogie
TTITLE11=Goin' Back Home Boogie
TTITLE12=Cow Cow Boogie
TTITLE13=Don't Blame Me
TTITLE14=Ain't Misbehavin'
EXTD=YEAR: 1975
EXTT0=
EXTT1=
EXTT2=
EXTT3=
EXTT4=
EXTT5=
EXTT6=
EXTT7=
EXTT8=
EXTT9=
EXTT10=
EXTT11=
EXTT12=
EXTT13=
EXTT14=
PLAYORDER=
